# xmcd CD database file
#
# Track frame offsets:
#	150
#	13023
#	24561
#	37171
#	48666
#	63789
#	76756
#	88624
#	95401
#	108796
#	122336
#	134944
#	147594
#	162204
#	175069
#	186747
#	189599
#	200409
#	213031
#	224792
#	239894
#	251214
#	262997
#	275062
#
# Disc length: 3845 seconds
#
# Revision: 0
# Processed by: cddbd v1.4PL0 Copyright (c) Steve Scherf et al.
# Submitted via: CDex 1.50
#
DISCID=720f0318
DTITLE=Sonny Boy Williamson - Chess Years Disc 1
DYEAR=1991
DGENRE=Blues
TTITLE0=Work With Me
TTITLE1=Don't Start Me Talking
TTITLE2=All My Love In Vain
TTITLE3=Good Evening Everybody
TTITLE4=You Killing Me (On My Feet)
TTITLE5=Let Me Explain
TTITLE6=I Know What Love Is All About
TTITLE7=I Wonder Why
TTITLE8=Your Imagination
TTITLE9=Don't Lose Your Eye
TTITLE10=Keep It To Yourself
TTITLE11=Please Forgive
TTITLE12=The Key (To Your Door)
TTITLE13=Have You Ever Been In Love
TTITLE14=Hurts Me So Much
TTITLE15=Fattering Frogs For Snakes
TTITLE16=I Don't Know
TTITLE17=Like Wolf
TTITLE18=This Is My Apartment
TTITLE19=Cross My Heart
TTITLE20=Born Blind
TTITLE21=Ninety Nine
TTITLE22=Dissatisfied
TTITLE23=Unseen Eye
EXTD=YEAR: 1991
EXTT0=
EXTT1=
EXTT2=
EXTT3=
EXTT4=
EXTT5=
EXTT6=
EXTT7=
EXTT8=
EXTT9=
EXTT10=
EXTT11=
EXTT12=
EXTT13=
EXTT14=
EXTT15=
EXTT16=
EXTT17=
EXTT18=
EXTT19=
EXTT20=
EXTT21=
EXTT22=
EXTT23=
PLAYORDER=
